HIERARCHY
ROOT pelvis
{
  OFFSET 0 100 0
  CHANNELS 6 Xposition Yposition Zposition Zrotation Xrotation Yrotation
  JOINT pelvis_right_femur
  {
    OFFSET -10.78128 -3.44521 -0.5502486
    CHANNELS 3 Zrotation Xrotation Yrotation
    JOINT right_femur_tibia
    {
      OFFSET -0.8047443 -44.0398 -0.1307829
      CHANNELS 3 Zrotation Xrotation Yrotation
      JOINT right_tibia_foot
      {
        OFFSET 3.006224 -47.83518 -5
        CHANNELS 3 Zrotation Xrotation Yrotation
        End Site
        {
          OFFSET 0 -5 15
        }
      }
    }
  }
  JOINT pelvis_left_femur
  {
    OFFSET 10.78128 -3.44521 -0.5502486
    CHANNELS 3 Zrotation Xrotation Yrotation
    JOINT left_femur_tibia
    {
      OFFSET 0.8047443 -44.0398 -0.1307829
      CHANNELS 3 Zrotation Xrotation Yrotation
      JOINT left_tibia_foot
      {
        OFFSET -4.370144 -48.10324 -4.275266
        CHANNELS 3 Zrotation Xrotation Yrotation
        End Site
        {
          OFFSET 0 -5 15
        }
      }
    }
  }
  JOINT pelvis_spine1
  {
    OFFSET 0 6.468898 -3.129235
    CHANNELS 3 Zrotation Xrotation Yrotation
    JOINT spine1
    {
      OFFSET 0 23.15396 4.99043
      CHANNELS 3 Zrotation Xrotation Yrotation
      JOINT spine2
      {
        OFFSET 0 20.79997 -5.064912
        CHANNELS 3 Zrotation Xrotation Yrotation
        JOINT neck
        {
          OFFSET 0 14.38658 9.616178
          CHANNELS 3 Zrotation Xrotation Yrotation
          End Site
          {
            OFFSET 0 20 0
          }
        }
      }
      JOINT right_manubrium
      {
        OFFSET -5.722621 16.35077 3.967754
        CHANNELS 3 Zrotation Xrotation Yrotation
        JOINT right_clavicle
        {
          OFFSET -13.16364 1.694482 -4.693211
          CHANNELS 3 Zrotation Xrotation Yrotation
          JOINT right_humerus
          {
            OFFSET -28.5034 -0.3100689 -2.792744
            CHANNELS 3 Zrotation Xrotation Yrotation
            JOINT right_radius
            {
              OFFSET -25.15693 0.02248979 -1.271978
              CHANNELS 3 Zrotation Xrotation Yrotation
              End Site
              {
                OFFSET -15 0 0
              }
            }
          }
        }
      }
      JOINT left_manubrium
      {
        OFFSET 5.722621 16.35077 3.967754
        CHANNELS 3 Zrotation Xrotation Yrotation
        JOINT left_clavicle
        {
          OFFSET 13.16364 1.694482 -4.693211
          CHANNELS 3 Zrotation Xrotation Yrotation
          JOINT left_humerus
          {
            OFFSET 29.39168 -1.063119 -2.237045
            CHANNELS 3 Zrotation Xrotation Yrotation
            JOINT left_radius
            {
              OFFSET 24.59957 -0.9528479 0.9047498
              CHANNELS 3 Zrotation Xrotation Yrotation
              End Site
              {
                OFFSET 15 -0 -0
              }
            }
          }
        }
      }
    }
  }
}
MOTION
Frames: 15
Frame Time: 0.0416666666667
-1070.463 100.6515 2714.697 -3.218987 -3.503648 -45.29693 2.711962 -26.67824 -2.977944 -0 6.200187 -0 -7.923342 3.651709 -3.632787 -4.558109 17.17613 -8.148029 -0 19.82111 -0 -1.030776 -18.33213 13.69429 -2.367674 0.3624011 3.534497 -1.430549 8.229569 -3.313121 4.53024 20.41144 9.283711 3.084044 -18.9746 16.22401 5.688783 -13.93535 11.30769 84.23843 48.35062 -11.73657 -0 0 15.41603 -13.3984 23.96894 4.188053 10.59393 -15.81506 -1.311091 -79.32838 8.635359 2.197111 0 0 -37.18 27.64007 10.07101 -22.64486
-1075.594 100.0467 2719.302 -3.410168 -3.288622 -45.38058 3.777176 -24.98027 -1.983363 -0 6.6542 -0 -7.978828 3.298464 -4.047353 -4.337805 17.39623 -7.943896 -0 26.69102 -0 -1.571109 -16.04102 13.26389 -2.284277 0.1859525 3.68582 -1.265346 8.419115 -3.580983 4.418536 20.1441 9.291134 3.158608 -19.58274 16.17364 5.674712 -14.30282 11.33532 84.86802 47.99272 -12.89133 -0 0 15.61687 -12.40092 23.13554 3.475407 10.71186 -16.12226 -1.315623 -79.51786 8.681316 2.622587 0 0 -37.68377 27.73131 9.463707 -22.71489
-1080.893 100.054 2723.967 -3.955311 -3.500826 -45.65604 4.75869 -21.72175 -0.8953059 -0 8.876297 -0 -8.355946 2.77374 -4.42183 -4.05363 16.34633 -7.769868 -0 35.32452 -0 -2.025937 -13.02814 13.08721 -2.201922 -0.02078877 3.847471 -1.03931 8.643676 -3.902564 4.245828 19.91083 9.244478 3.250219 -20.23824 15.97154 5.654606 -14.72992 11.36252 85.49935 47.38787 -14.111 -0 0 15.76488 -11.37152 21.97926 2.812148 10.7694 -16.52088 -1.345376 -79.87449 8.902894 3.290194 0 0 -37.75178 27.6367 8.917576 -22.5253
-1086.184 100.6923 2728.524 -4.731609 -4.062024 -46.15134 5.540132 -17.29375 0.1789794 -0 11.73019 -0 -8.809351 1.809919 -4.671882 -3.69127 13.68233 -7.58311 -0 44.63907 -0 -2.545668 -9.882185 13.25241 -2.129151 -0.238701 4.004296 -0.7734822 8.881691 -4.246285 4.025702 19.73884 9.144942 3.349913 -20.87099 15.62565 5.632009 -15.17847 11.38708 86.0478 46.58665 -15.25226 -0 0 15.85064 -10.42301 20.6079 2.278174 10.75593 -16.97459 -1.401314 -80.3826 9.28479 4.157775 0 0 -37.33817 27.35646 8.500495 -22.08152
-1091.287 101.8052 2732.819 -5.529368 -4.772143 -46.86388 6.046838 -12.26314 1.163194 -0 14.01941 -0 -8.962151 0.1798137 -4.734145 -3.234493 9.250744 -7.294789 -0 52.89629 -0 -3.235928 -7.268527 13.77588 -2.072613 -0.4531942 4.149985 -0.4878875 9.119271 -4.583435 3.767255 19.64839 8.995234 3.454504 -21.42437 15.13828 5.610716 -15.62596 11.40898 86.44028 45.62793 -16.19509 -0 0 15.8814 -9.646872 19.10769 1.931472 10.66403 -17.45358 -1.486444 -81.04095 9.805652 5.209545 0 0 -36.39284 26.88991 8.259077 -21.3902
-1096.081 103.0861 2736.791 -6.150791 -5.406964 -47.74745 6.271661 -7.19609 1.937077 -0 14.8851 -0 -8.601235 -2.09009 -4.543096 -2.652374 3.305356 -6.781617 -0 58.12017 -0 -3.891874 -5.635015 14.6027 -2.035816 -0.6530979 4.284108 -0.2027072 9.347442 -4.888903 3.480645 19.64798 8.801997 3.562739 -21.8573 14.52095 5.593445 -16.05975 11.4295 86.63031 44.55343 -16.85668 -0 0 15.87888 -9.104384 17.56215 1.799885 10.49372 -17.93015 -1.602358 -81.84376 10.43046 6.430213 0 0 -34.91126 26.24657 8.212542 -20.47322
-1100.548 104.1876 2740.51 -6.49457 -5.805446 -48.72652 6.277897 -2.446768 2.329311 -0 14.15312 -0 -7.882145 -4.670978 -4.042875 -1.889996 -3.462868 -5.955567 -0 58.85901 -0 -4.030286 -4.96759 15.59983 -2.01847 -0.8300353 4.409113 0.06225821 9.559783 -5.142888 3.18051 19.73142 8.577243 3.672441 -22.148 13.80466 5.580829 -16.47211 11.45024 86.60864 43.41653 -17.20249 -0 0 15.87317 -8.819094 16.05988 1.876767 10.25539 -18.37672 -1.746004 -82.76553 11.10892 7.784239 0 0 -32.96945 25.45538 8.348901 -19.3778
-1104.75 104.8493 2744.13 -6.533385 -5.869357 -49.71713 6.137661 1.921285 2.270085 -0 12.33465 -0 -7.158599 -7.227051 -3.262054 -0.9034319 -10.1943 -4.881187 -0 54.86195 -0 -3.416861 -4.873362 16.56799 -2.016903 -0.9789527 4.528119 0.290614 9.751854 -5.333898 2.884575 19.87935 8.337036 3.780247 -22.29672 13.03763 5.571482 -16.85784 11.47232 86.40334 42.27742 -17.24963 -0 0 15.89348 -8.77509 14.68274 2.124302 9.969391 -18.7695 -1.909239 -83.75907 11.7838 9.211869 0 0 -30.71942 24.56538 8.628259 -18.17506
-1108.789 104.9567 2747.806 -6.253787 -5.554413 -50.64335 5.852399 5.986321 1.946721 -0 10.27915 -0 -6.586847 -9.726019 -2.363317 0.2530853 -16.16223 -3.815027 -0 47.14615 -0 -2.465098 -4.954909 17.30422 -2.025677 -1.098829 4.643827 0.4726032 9.921978 -5.46035 2.608531 20.0661 8.09747 3.883551 -22.32179 12.27036 5.563157 -17.21431 11.49606 86.06522 41.18741 -17.05427 -0 0 15.96012 -8.927661 13.48477 2.487069 9.661317 -19.09495 -2.082059 -84.76886 12.40474 10.64421 0 0 -28.34135 23.63543 8.9964 -16.94532
-1112.768 104.5237 2751.637 -5.699949 -4.941787 -51.45698 5.363495 9.764825 1.701981 -0 8.83135 -0 -6.023203 -12.2333 -1.573881 1.372189 -20.84698 -3.078036 -0 37.53269 -0 -1.86586 -5.051911 17.73022 -2.039663 -1.191682 4.757681 0.6052445 10.07095 -5.527952 2.362589 20.26796 7.871191 3.981607 -22.24908 11.54228 5.553997 -17.54049 11.52113 85.64764 40.17985 -16.68615 -0 0 16.08108 -9.223436 12.48671 2.910255 9.355465 -19.35107 -2.256065 -85.74546 12.93693 12.01981 0 0 -25.9918 22.72125 9.402221 -15.76152
-1116.786 103.6583 2755.67 -5.042537 -4.269543 -52.14823 4.648415 13.15959 1.741862 -0 8.642559 -0 -5.327523 -14.40979 -1.028811 2.160263 -23.93434 -2.871521 -0 28.08204 -0 -1.938896 -5.169218 17.96048 -2.055622 -1.259658 4.868193 0.6896069 10.19919 -5.544532 2.15296 20.46797 7.6674 4.073796 -22.10273 10.88197 5.543052 -17.83231 11.54665 85.19441 39.27876 -16.20646 -0 0 16.25019 -9.616976 11.6929 3.352355 9.070849 -19.54091 -2.424103 -86.64616 13.36067 13.28394 0 0 -23.78965 21.87067 9.807989 -14.68349
-1120.933 102.5423 2759.931 -4.527113 -3.823867 -52.73331 3.786153 16.02688 1.9875 -0 10.08122 -0 -4.612299 -15.46081 -0.7068449 2.388572 -25.34733 -3.195958 -0 20.54923 -0 -2.465844 -5.327478 18.20364 -2.072771 -1.302744 4.969657 0.7286545 10.30388 -5.516875 1.98479 20.65625 7.493812 4.157359 -21.90308 10.31435 5.530316 -18.07842 11.5711 84.73896 38.51193 -15.66115 -0 0 16.44574 -10.07472 11.10796 3.787568 8.820799 -19.66594 -2.577699 -87.42841 13.66858 14.37932 0 0 -21.82957 21.12517 10.18948 -13.75981
-1125.293 101.4103 2764.443 -4.340768 -3.785773 -53.23074 2.916821 18.21864 2.206099 -0 13.2744 -0 -4.143011 -14.64769 -0.5169504 1.989572 -25.21587 -3.914074 -0 15.91308 -0 -2.994019 -5.519934 18.60345 -2.092371 -1.31878 5.05299 0.7267303 10.37865 -5.450673 1.862903 20.8283 7.357616 4.22742 -21.66844 9.863209 5.516736 -18.26104 11.59228 84.30678 37.91299 -15.08459 -0 0 16.63361 -10.57074 10.73793 4.201472 8.614297 -19.72484 -2.706413 -88.04972 13.8642 15.24572 0 0 -20.19126 20.52008 10.53184 -13.02872
-1129.91 100.5169 2769.207 -4.526506 -4.163144 -53.64201 2.150916 19.55914 2.221567 -0 18.22014 -0 -4.106421 -11.76424 -0.3814183 1.037729 -23.77365 -4.871627 -0 14.23199 -0 -3.172632 -5.739433 19.15757 -2.116874 -1.304399 5.107717 0.6887967 10.415 -5.350787 1.791556 20.98307 7.265457 4.27843 -21.41491 9.550035 5.504166 -18.35945 11.60753 83.91635 37.5172 -14.50279 -0 0 16.77485 -11.08359 10.58774 4.585894 8.457676 -19.71469 -2.799273 -88.47159 13.95857 15.82548 0 0 -18.94085 20.08416 10.82636 -12.51946
-1134.759 100.0928 2774.184 -4.992343 -4.826681 -53.9399 1.522937 19.80724 1.998745 -0 24.81369 -0 -4.51835 -7.198895 -0.255332 -0.3165568 -21.26402 -5.964291 -0 14.8748 -0 -2.8713 -6.007252 19.73256 -2.149192 -1.255315 5.123118 0.6186183 10.40318 -5.220369 1.775317 21.1213 7.223706 4.304997 -21.15378 9.394868 5.495177 -18.35175 11.61401 83.57954 37.36105 -13.93319 -0 0 16.83271 -11.5969 10.66628 4.935662 8.356441 -19.63078 -2.84604 -88.65918 13.96353 16.06353 0 0 -18.13686 19.84221 11.06887 -12.25738
